<svg width="100" height="100" viewBox="0 0 100 100" fill="none" xmlns="http://www.w3.org/2000/svg">
<path d="M31.2583 0H42V4.49167H35.75V8.98333H42V13.475H31.2583V0Z" fill="#8A39DB"/>
<path d="M44.1459 0H54.8917V3.90833H48.6417V4.6875H54.8917V13.6708H44.1459V9.57083H50.3959V8.7875H44.1459V0Z" fill="#8A39DB"/>
<path d="M57.0416 0H67.7791V3.90833H61.5291V4.6875H67.7791V13.6708H57.0416V9.57083H63.2916V8.7875H57.0416V0Z" fill="#8A39DB"/>
<path fill-rule="evenodd" clip-rule="evenodd" d="M49.9625 99.9999L21.0292 91.9666L12.5 19.6541H87.5L78.975 91.9582L49.9625 99.9999ZM29.3625 52.3874L30.1583 61.2541H60.8958L59.8667 72.7541L49.975 75.4291H49.9667L40.0917 72.7624L39.4583 65.6916H30.5542L31.7958 79.6166L49.9625 84.6582L68.1583 79.6166L70.375 54.7666L70.5917 52.3874L72.1917 34.4332H27.7667L28.575 43.3041H62.475L61.6667 52.3874H29.3625Z" fill="#8A39DB"/>
</svg>
