<svg width="100" height="100" viewBox="0 0 100 100" fill="none" xmlns="http://www.w3.org/2000/svg">
<path d="M21.1666 0H25.675V4.45417H29.8V0H34.3083V13.4833H29.8V8.97083H25.675V13.4833H21.1708V0H21.1666Z" fill="#8A39DB"/>
<path d="M40.2334 4.47083H36.2667V0H48.7126V4.47083H44.7417V13.4833H40.2334V4.47083Z" fill="#8A39DB"/>
<path d="M50.6875 0H55.3875L58.2792 4.7375L61.1667 0H65.8667V13.4833H61.3792V6.8L58.2792 11.5958H58.2L55.0958 6.80417V13.4833H50.6875V0Z" fill="#8A39DB"/>
<path d="M68.1084 0H72.6209V9.02917H78.9542V13.4875H68.1084V0Z" fill="#8A39DB"/>
<path fill-rule="evenodd" clip-rule="evenodd" d="M21.025 91.9665L12.5 19.6541H87.5L78.9708 91.9582L49.9583 99.9999L21.025 91.9665ZM38.2625 52.3832L37.4542 43.2999H71.3917L72.1833 34.4332H27.7667L30.1583 61.2541H60.8958L59.8667 72.7541L49.975 75.4291H49.9667L40.0917 72.7624L39.4583 65.6916H30.55L31.7917 79.6166L49.9583 84.6582L68.1542 79.6166L70.3708 54.7666L70.5875 52.3874H38.2625V52.3832Z" fill="#8A39DB"/>
</svg>
