<svg width="100" height="100" viewBox="0 0 100 100" fill="none" xmlns="http://www.w3.org/2000/svg">
<path d="M58.6688 61.5625C59.6383 63.5277 61.1425 65.1796 63.0088 66.3283C64.875 67.477 67.0274 68.0759 69.2188 68.0562C73.65 68.0562 76.4813 65.8406 76.4813 62.7812C76.4813 59.1156 73.5719 57.8156 68.6969 55.6812L66.0219 54.5343C58.3063 51.2468 53.1781 47.1281 53.1781 38.4218C53.1781 30.4 59.2906 24.2968 68.8406 24.2968C71.9402 24.0719 75.0372 24.7657 77.7446 26.2914C80.452 27.8171 82.6495 30.1071 84.0625 32.875L75.7344 38.2218C75.1891 36.8503 74.2393 35.6771 73.0113 34.8582C71.7833 34.0394 70.3352 33.6136 68.8594 33.6374C68.2161 33.5727 67.5664 33.6428 66.9517 33.8431C66.337 34.0434 65.7708 34.3697 65.2892 34.801C64.8076 35.2323 64.4211 35.7593 64.1545 36.3483C63.8879 36.9373 63.7469 37.5753 63.7406 38.2218C63.7406 41.4312 65.7281 42.7281 70.3031 44.7156L72.9781 45.8593C82.0656 49.7562 87.1938 53.7281 87.1938 62.6593C87.1938 72.2874 79.6313 77.5624 69.4719 77.5624C65.5146 77.8142 61.569 76.9154 58.1112 74.9747C54.6533 73.0339 51.8309 70.1341 49.9844 66.6249L58.6688 61.5625ZM20.8938 62.4999C22.575 65.4812 24.1031 67.9999 27.7688 67.9999C31.2812 67.9999 33.5 66.6249 33.5 61.2812V24.9218H44.1938V61.4312C44.1938 72.5031 37.7 77.5437 28.225 77.5437C24.8781 77.7249 21.5547 76.8886 18.6922 75.145C15.8296 73.4013 13.5619 70.832 12.1875 67.7749L20.8938 62.4999Z" fill="#8A39DB"/>
</svg>
