<svg width="608" height="85" viewBox="0 0 608 85" fill="none" xmlns="http://www.w3.org/2000/svg">
<path d="M3.84 42.928C6.016 42.928 7.53067 42.608 8.384 41.968C9.28 41.328 9.728 40.304 9.728 38.896C9.728 37.8293 9.49333 36.0373 9.024 33.52C8.42667 30.2773 8.128 27.76 8.128 25.968C8.128 21.744 9.42933 18.48 12.032 16.176C14.6347 13.872 18.176 12.72 22.656 12.72H27.52V24.048H25.344C23.9787 24.048 22.9973 24.3467 22.4 24.944C21.8453 25.5413 21.568 26.3947 21.568 27.504C21.568 28.1867 21.7387 29.8933 22.08 32.624C22.5067 35.7813 22.72 38.064 22.72 39.472C22.72 41.9893 22.144 44.0587 20.992 45.68C19.84 47.2587 18.112 48.2613 15.808 48.688V48.816C18.112 49.2427 19.84 50.2667 20.992 51.888C22.144 53.4667 22.72 55.5147 22.72 58.032C22.72 59.44 22.5067 61.7227 22.08 64.88C21.7387 67.6107 21.568 69.3173 21.568 70C21.568 71.1093 21.8453 71.9627 22.4 72.56C22.9973 73.1573 23.9787 73.456 25.344 73.456H27.52V84.784H22.656C18.176 84.784 14.6347 83.632 12.032 81.328C9.42933 79.024 8.128 75.76 8.128 71.536C8.128 69.744 8.42667 67.2267 9.024 63.984C9.49333 61.4667 9.728 59.6747 9.728 58.608C9.728 57.2853 9.28 56.2827 8.384 55.6C7.488 54.8747 5.97333 54.512 3.84 54.512V42.928ZM74.131 63.152H59.027L56.787 70H41.875L58.451 24.688H74.835L91.347 70H76.371L74.131 63.152ZM70.675 52.464L66.579 39.856L62.483 52.464H70.675ZM108.783 22.64V70H94.575V22.64H108.783ZM122.368 31.024C119.893 31.024 117.909 30.3627 116.416 29.04C114.923 27.7173 114.176 26.0533 114.176 24.048C114.176 22 114.923 20.3147 116.416 18.992C117.909 17.6267 119.893 16.944 122.368 16.944C124.8 16.944 126.763 17.6267 128.256 18.992C129.749 20.3147 130.496 22 130.496 24.048C130.496 26.0533 129.749 27.7173 128.256 29.04C126.763 30.3627 124.8 31.024 122.368 31.024ZM129.408 33.904V70H115.2V33.904H129.408ZM151.889 70.448C148.476 70.448 145.446 69.8933 142.801 68.784C140.198 67.6747 138.129 66.1387 136.593 64.176C135.057 62.2133 134.182 59.9947 133.969 57.52H147.601C147.772 58.5867 148.22 59.376 148.945 59.888C149.713 60.4 150.673 60.656 151.825 60.656C152.55 60.656 153.126 60.5067 153.553 60.208C153.98 59.8667 154.193 59.4613 154.193 58.992C154.193 58.1813 153.745 57.6053 152.849 57.264C151.953 56.9227 150.438 56.5387 148.305 56.112C145.702 55.6 143.548 55.0453 141.841 54.448C140.177 53.8507 138.705 52.8267 137.425 51.376C136.188 49.9253 135.569 47.92 135.569 45.36C135.569 43.1413 136.145 41.136 137.297 39.344C138.492 37.5093 140.241 36.08 142.545 35.056C144.849 33.9893 147.644 33.456 150.929 33.456C155.793 33.456 159.59 34.6507 162.321 37.04C165.094 39.4293 166.758 42.544 167.313 46.384H154.705C154.492 45.4027 154.044 44.656 153.361 44.144C152.678 43.5893 151.761 43.312 150.609 43.312C149.884 43.312 149.329 43.4613 148.945 43.76C148.561 44.016 148.369 44.4213 148.369 44.976C148.369 45.7013 148.817 46.256 149.713 46.64C150.609 46.9813 152.038 47.344 154.001 47.728C156.604 48.24 158.801 48.816 160.593 49.456C162.385 50.096 163.942 51.2053 165.265 52.784C166.588 54.32 167.249 56.4533 167.249 59.184C167.249 61.3173 166.63 63.2373 165.393 64.944C164.156 66.6507 162.364 67.9947 160.017 68.976C157.713 69.9573 155.004 70.448 151.889 70.448ZM188.952 70.448C185.538 70.448 182.509 69.8933 179.864 68.784C177.261 67.6747 175.192 66.1387 173.656 64.176C172.12 62.2133 171.245 59.9947 171.032 57.52H184.664C184.834 58.5867 185.282 59.376 186.008 59.888C186.776 60.4 187.736 60.656 188.888 60.656C189.613 60.656 190.189 60.5067 190.616 60.208C191.042 59.8667 191.256 59.4613 191.256 58.992C191.256 58.1813 190.808 57.6053 189.912 57.264C189.016 56.9227 187.501 56.5387 185.368 56.112C182.765 55.6 180.61 55.0453 178.904 54.448C177.24 53.8507 175.768 52.8267 174.488 51.376C173.25 49.9253 172.632 47.92 172.632 45.36C172.632 43.1413 173.208 41.136 174.36 39.344C175.554 37.5093 177.304 36.08 179.608 35.056C181.912 33.9893 184.706 33.456 187.992 33.456C192.856 33.456 196.653 34.6507 199.384 37.04C202.157 39.4293 203.821 42.544 204.376 46.384H191.768C191.554 45.4027 191.106 44.656 190.424 44.144C189.741 43.5893 188.824 43.312 187.672 43.312C186.946 43.312 186.392 43.4613 186.008 43.76C185.624 44.016 185.432 44.4213 185.432 44.976C185.432 45.7013 185.88 46.256 186.776 46.64C187.672 46.9813 189.101 47.344 191.064 47.728C193.666 48.24 195.864 48.816 197.656 49.456C199.448 50.096 201.005 51.2053 202.328 52.784C203.65 54.32 204.312 56.4533 204.312 59.184C204.312 61.3173 203.693 63.2373 202.456 64.944C201.218 66.6507 199.426 67.9947 197.08 68.976C194.776 69.9573 192.066 70.448 188.952 70.448ZM227.102 70.448C223.475 70.448 220.211 69.7013 217.31 68.208C214.409 66.7147 212.126 64.5813 210.462 61.808C208.841 58.992 208.03 55.7067 208.03 51.952C208.03 48.1973 208.841 44.9333 210.462 42.16C212.126 39.344 214.409 37.1893 217.31 35.696C220.211 34.2027 223.475 33.456 227.102 33.456C230.729 33.456 233.993 34.2027 236.894 35.696C239.795 37.1893 242.057 39.344 243.678 42.16C245.342 44.9333 246.174 48.1973 246.174 51.952C246.174 55.7067 245.342 58.992 243.678 61.808C242.057 64.5813 239.795 66.7147 236.894 68.208C233.993 69.7013 230.729 70.448 227.102 70.448ZM227.102 58.16C228.425 58.16 229.534 57.648 230.43 56.624C231.326 55.5573 231.774 54 231.774 51.952C231.774 49.904 231.326 48.368 230.43 47.344C229.534 46.2773 228.425 45.744 227.102 45.744C225.779 45.744 224.67 46.2773 223.774 47.344C222.878 48.368 222.43 49.904 222.43 51.952C222.43 54 222.857 55.5573 223.71 56.624C224.606 57.648 225.737 58.16 227.102 58.16ZM275.918 33.648C280.056 33.648 283.278 35.0347 285.582 37.808C287.928 40.5813 289.102 44.336 289.102 49.072V70H274.958V50.864C274.958 49.1573 274.488 47.8133 273.55 46.832C272.654 45.808 271.438 45.296 269.902 45.296C268.323 45.296 267.086 45.808 266.19 46.832C265.294 47.8133 264.846 49.1573 264.846 50.864V70H250.638V33.904H264.846V39.408C265.955 37.7013 267.427 36.3147 269.262 35.248C271.139 34.1813 273.358 33.648 275.918 33.648ZM573.949 54.512C571.815 54.512 570.301 54.8747 569.405 55.6C568.509 56.2827 568.061 57.2853 568.061 58.608C568.061 59.6747 568.295 61.4667 568.765 63.984C569.362 67.2267 569.661 69.744 569.661 71.536C569.661 75.76 568.359 79.024 565.757 81.328C563.154 83.632 559.613 84.784 555.133 84.784H550.269V73.456H552.445C553.81 73.456 554.77 73.1573 555.325 72.56C555.922 71.9627 556.22 71.1093 556.22 70C556.22 69.3173 556.05 67.6107 555.709 64.88C555.282 61.7227 555.069 59.44 555.069 58.032C555.069 55.5147 555.645 53.4667 556.797 51.888C557.949 50.2667 559.677 49.2427 561.981 48.816V48.688C559.677 48.2613 557.949 47.2587 556.797 45.68C555.645 44.0587 555.069 41.9893 555.069 39.472C555.069 38.064 555.282 35.7813 555.709 32.624C556.05 29.8933 556.22 28.1867 556.22 27.504C556.22 26.3947 555.922 25.5413 555.325 24.944C554.77 24.3467 553.81 24.048 552.445 24.048H550.269V12.72H555.133C559.613 12.72 563.154 13.872 565.757 16.176C568.359 18.48 569.661 21.744 569.661 25.968C569.661 27.76 569.362 30.2773 568.765 33.52C568.295 36.0373 568.061 37.8293 568.061 38.896C568.061 40.304 568.487 41.328 569.341 41.968C570.237 42.608 571.773 42.928 573.949 42.928V54.512Z" fill="white"/>
<path d="M328.922 70L320.41 53.744H320.346V70H306.138V24.688H327.258C330.927 24.688 334.063 25.3493 336.666 26.672C339.268 27.952 341.21 29.7227 342.49 31.984C343.812 34.2027 344.474 36.72 344.474 39.536C344.474 42.5653 343.62 45.2533 341.914 47.6C340.25 49.9467 337.839 51.632 334.682 52.656L344.538 70H328.922ZM320.346 44.272H325.978C327.343 44.272 328.367 43.9733 329.05 43.376C329.732 42.736 330.074 41.7547 330.074 40.432C330.074 39.2373 329.711 38.2987 328.986 37.616C328.303 36.9333 327.3 36.592 325.978 36.592H320.346V44.272ZM347.093 51.952C347.093 48.1547 347.733 44.8693 349.013 42.096C350.335 39.28 352.127 37.1467 354.389 35.696C356.65 34.2027 359.189 33.456 362.005 33.456C364.351 33.456 366.378 33.9467 368.085 34.928C369.791 35.8667 371.093 37.168 371.989 38.832V33.904H386.133V70H371.989V65.072C371.093 66.736 369.791 68.0587 368.085 69.04C366.378 69.9787 364.351 70.448 362.005 70.448C359.189 70.448 356.65 69.7227 354.389 68.272C352.127 66.7787 350.335 64.6453 349.013 61.872C347.733 59.056 347.093 55.7493 347.093 51.952ZM371.989 51.952C371.989 50.032 371.498 48.5387 370.517 47.472C369.535 46.4053 368.277 45.872 366.741 45.872C365.205 45.872 363.946 46.4053 362.965 47.472C361.983 48.5387 361.493 50.032 361.493 51.952C361.493 53.872 361.983 55.3653 362.965 56.432C363.946 57.4987 365.205 58.032 366.741 58.032C368.277 58.032 369.535 57.4987 370.517 56.432C371.498 55.3653 371.989 53.872 371.989 51.952ZM440.705 33.648C445.313 33.648 448.875 35.0347 451.393 37.808C453.953 40.5813 455.233 44.336 455.233 49.072V70H441.089V50.864C441.089 49.328 440.619 48.1333 439.681 47.28C438.785 46.384 437.569 45.936 436.033 45.936C434.454 45.936 433.217 46.384 432.321 47.28C431.425 48.1333 430.977 49.328 430.977 50.864V70H416.833V50.864C416.833 49.328 416.363 48.1333 415.425 47.28C414.529 46.384 413.313 45.936 411.777 45.936C410.198 45.936 408.961 46.384 408.065 47.28C407.169 48.1333 406.721 49.328 406.721 50.864V70H392.513V33.904H406.721V38.768C407.745 37.232 409.131 35.9947 410.881 35.056C412.673 34.1173 414.763 33.648 417.153 33.648C419.755 33.648 422.059 34.224 424.065 35.376C426.07 36.4853 427.67 38.064 428.865 40.112C430.187 38.2347 431.873 36.6987 433.921 35.504C435.969 34.2667 438.23 33.648 440.705 33.648ZM478.54 70.448C474.913 70.448 471.649 69.7013 468.748 68.208C465.846 66.7147 463.564 64.5813 461.9 61.808C460.278 58.992 459.468 55.7067 459.468 51.952C459.468 48.1973 460.278 44.9333 461.9 42.16C463.564 39.344 465.846 37.1893 468.748 35.696C471.649 34.2027 474.913 33.456 478.54 33.456C482.166 33.456 485.43 34.2027 488.332 35.696C491.233 37.1893 493.494 39.344 495.116 42.16C496.78 44.9333 497.612 48.1973 497.612 51.952C497.612 55.7067 496.78 58.992 495.116 61.808C493.494 64.5813 491.233 66.7147 488.332 68.208C485.43 69.7013 482.166 70.448 478.54 70.448ZM478.54 58.16C479.862 58.16 480.972 57.648 481.868 56.624C482.764 55.5573 483.212 54 483.212 51.952C483.212 49.904 482.764 48.368 481.868 47.344C480.972 46.2773 479.862 45.744 478.54 45.744C477.217 45.744 476.108 46.2773 475.212 47.344C474.316 48.368 473.868 49.904 473.868 51.952C473.868 54 474.294 55.5573 475.148 56.624C476.044 57.648 477.174 58.16 478.54 58.16ZM518.139 70.448C514.726 70.448 511.696 69.8933 509.051 68.784C506.448 67.6747 504.379 66.1387 502.843 64.176C501.307 62.2133 500.432 59.9947 500.219 57.52H513.851C514.022 58.5867 514.47 59.376 515.195 59.888C515.963 60.4 516.923 60.656 518.075 60.656C518.8 60.656 519.376 60.5067 519.803 60.208C520.23 59.8667 520.443 59.4613 520.443 58.992C520.443 58.1813 519.995 57.6053 519.099 57.264C518.203 56.9227 516.688 56.5387 514.555 56.112C511.952 55.6 509.798 55.0453 508.091 54.448C506.427 53.8507 504.955 52.8267 503.675 51.376C502.438 49.9253 501.819 47.92 501.819 45.36C501.819 43.1413 502.395 41.136 503.547 39.344C504.742 37.5093 506.491 36.08 508.795 35.056C511.099 33.9893 513.894 33.456 517.179 33.456C522.043 33.456 525.84 34.6507 528.571 37.04C531.344 39.4293 533.008 42.544 533.563 46.384H520.955C520.742 45.4027 520.294 44.656 519.611 44.144C518.928 43.5893 518.011 43.312 516.859 43.312C516.134 43.312 515.579 43.4613 515.195 43.76C514.811 44.016 514.619 44.4213 514.619 44.976C514.619 45.7013 515.067 46.256 515.963 46.64C516.859 46.9813 518.288 47.344 520.251 47.728C522.854 48.24 525.051 48.816 526.843 49.456C528.635 50.096 530.192 51.2053 531.515 52.784C532.838 54.32 533.499 56.4533 533.499 59.184C533.499 61.3173 532.88 63.2373 531.643 64.944C530.406 66.6507 528.614 67.9947 526.267 68.976C523.963 69.9573 521.254 70.448 518.139 70.448Z" fill="url(#paint0_linear_43_254)"/>
<defs>
<linearGradient id="paint0_linear_43_254" x1="304" y1="-4.50864e-05" x2="515.5" y2="43" gradientUnits="userSpaceOnUse">
<stop stop-color="#8A39DB"/>
<stop offset="1" stop-color="#750ADF"/>
</linearGradient>
</defs>
</svg>
