<svg width="69" height="35" viewBox="0 0 69 35" fill="none" xmlns="http://www.w3.org/2000/svg">
<path d="M1.44 15.848C2.256 15.848 2.824 15.728 3.144 15.488C3.48 15.248 3.648 14.864 3.648 14.336C3.648 13.936 3.56 13.264 3.384 12.32C3.16 11.104 3.048 10.16 3.048 9.488C3.048 7.904 3.536 6.68 4.512 5.816C5.488 4.952 6.816 4.52 8.496 4.52H10.32V8.768H9.504C8.992 8.768 8.624 8.88 8.4 9.104C8.192 9.328 8.088 9.648 8.088 10.064C8.088 10.32 8.152 10.96 8.28 11.984C8.44 13.168 8.52 14.024 8.52 14.552C8.52 15.496 8.304 16.272 7.872 16.88C7.44 17.472 6.792 17.848 5.928 18.008V18.056C6.792 18.216 7.44 18.6 7.872 19.208C8.304 19.8 8.52 20.568 8.52 21.512C8.52 22.04 8.44 22.896 8.28 24.08C8.152 25.104 8.088 25.744 8.088 26C8.088 26.416 8.192 26.736 8.4 26.96C8.624 27.184 8.992 27.296 9.504 27.296H10.32V31.544H8.496C6.816 31.544 5.488 31.112 4.512 30.248C3.536 29.384 3.048 28.16 3.048 26.576C3.048 25.904 3.16 24.96 3.384 23.744C3.56 22.8 3.648 22.128 3.648 21.728C3.648 21.232 3.48 20.856 3.144 20.6C2.808 20.328 2.24 20.192 1.44 20.192V15.848ZM23.721 23.432H18.057L17.217 26H11.625L17.841 9.008H23.985L30.177 26H24.561L23.721 23.432ZM22.425 19.424L20.889 14.696L19.353 19.424H22.425ZM56.4416 20.192C55.6416 20.192 55.0736 20.328 54.7376 20.6C54.4016 20.856 54.2336 21.232 54.2336 21.728C54.2336 22.128 54.3216 22.8 54.4976 23.744C54.7216 24.96 54.8336 25.904 54.8336 26.576C54.8336 28.16 54.3456 29.384 53.3696 30.248C52.3936 31.112 51.0656 31.544 49.3856 31.544H47.5616V27.296H48.3776C48.8896 27.296 49.2496 27.184 49.4576 26.96C49.6816 26.736 49.7936 26.416 49.7936 26C49.7936 25.744 49.7296 25.104 49.6016 24.08C49.4416 22.896 49.3616 22.04 49.3616 21.512C49.3616 20.568 49.5776 19.8 50.0096 19.208C50.4416 18.6 51.0896 18.216 51.9536 18.056V18.008C51.0896 17.848 50.4416 17.472 50.0096 16.88C49.5776 16.272 49.3616 15.496 49.3616 14.552C49.3616 14.024 49.4416 13.168 49.6016 11.984C49.7296 10.96 49.7936 10.32 49.7936 10.064C49.7936 9.648 49.6816 9.328 49.4576 9.104C49.2496 8.88 48.8896 8.768 48.3776 8.768H47.5616V4.52H49.3856C51.0656 4.52 52.3936 4.952 53.3696 5.816C54.3456 6.68 54.8336 7.904 54.8336 9.488C54.8336 10.16 54.7216 11.104 54.4976 12.32C54.3216 13.264 54.2336 13.936 54.2336 14.336C54.2336 14.864 54.3936 15.248 54.7136 15.488C55.0496 15.728 55.6256 15.848 56.4416 15.848V20.192Z" fill="white"/>
<path d="M39.9315 26L36.7395 19.904H36.7155V26H31.3875V9.008H39.3075C40.6835 9.008 41.8595 9.256 42.8355 9.752C43.8115 10.232 44.5395 10.896 45.0195 11.744C45.5155 12.576 45.7635 13.52 45.7635 14.576C45.7635 15.712 45.4435 16.72 44.8035 17.6C44.1795 18.48 43.2755 19.112 42.0915 19.496L45.7875 26H39.9315ZM36.7155 16.352H38.8275C39.3395 16.352 39.7235 16.24 39.9795 16.016C40.2355 15.776 40.3635 15.408 40.3635 14.912C40.3635 14.464 40.2275 14.112 39.9555 13.856C39.6995 13.6 39.3235 13.472 38.8275 13.472H36.7155V16.352Z" fill="url(#paint0_linear_72_6)"/>
<defs>
<linearGradient id="paint0_linear_72_6" x1="34.5" y1="-1.8565e-05" x2="59.4164" y2="1.39615" gradientUnits="userSpaceOnUse">
<stop stop-color="#8A39DB"/>
<stop offset="1" stop-color="#750ADF"/>
</linearGradient>
</defs>
</svg>
